<mxfile host="app.diagrams.net" agent="Mozilla/5.0 (Windows NT 10.0; Win64; x64) AppleWebKit/537.36 (KHTML, like Gecko) Chrome/126.0.0.0 Whale/3.27.254.15 Safari/537.36" version="24.7.6">
  <diagram name="[20240801] UML " id="d-Nx_6MhP4iDw0S49lnq">
    <mxGraphModel grid="1" page="1" gridSize="10" guides="1" tooltips="1" connect="1" arrows="1" fold="1" pageScale="1" pageWidth="827" pageHeight="1169" math="0" shadow="0">
      <root>
        <mxCell id="0" />
        <mxCell id="1" parent="0" />
        <mxCell id="qIUP8JVqwEukpnq0GiEh-71" value="" style="rounded=0;whiteSpace=wrap;html=1;" vertex="1" parent="1">
          <mxGeometry x="-395" y="430" width="420" height="410" as="geometry" />
        </mxCell>
        <mxCell id="qIUP8JVqwEukpnq0GiEh-70" value="" style="rounded=0;whiteSpace=wrap;html=1;" vertex="1" parent="1">
          <mxGeometry x="970" y="-200" width="420" height="410" as="geometry" />
        </mxCell>
        <mxCell id="qIUP8JVqwEukpnq0GiEh-69" value="" style="rounded=0;whiteSpace=wrap;html=1;" vertex="1" parent="1">
          <mxGeometry x="370" y="-180" width="330" height="440" as="geometry" />
        </mxCell>
        <mxCell id="qIUP8JVqwEukpnq0GiEh-66" value="" style="rounded=0;whiteSpace=wrap;html=1;" vertex="1" parent="1">
          <mxGeometry x="-440" y="-250" width="590" height="500" as="geometry" />
        </mxCell>
        <mxCell id="qIUP8JVqwEukpnq0GiEh-2" value="약 복용하는 사람" style="shape=umlActor;verticalLabelPosition=bottom;verticalAlign=top;html=1;" vertex="1" parent="1">
          <mxGeometry x="-200" y="40" width="30" height="60" as="geometry" />
        </mxCell>
        <mxCell id="qIUP8JVqwEukpnq0GiEh-7" value="약물 정보 검색" style="ellipse;whiteSpace=wrap;html=1;" vertex="1" parent="1">
          <mxGeometry x="-300" y="-80" width="110" height="50" as="geometry" />
        </mxCell>
        <mxCell id="qIUP8JVqwEukpnq0GiEh-11" value="알람 기능 설정" style="ellipse;whiteSpace=wrap;html=1;" vertex="1" parent="1">
          <mxGeometry x="-180" y="-140" width="110" height="50" as="geometry" />
        </mxCell>
        <mxCell id="qIUP8JVqwEukpnq0GiEh-14" value="알람 기능 받기" style="ellipse;whiteSpace=wrap;html=1;" vertex="1" parent="1">
          <mxGeometry x="-60" y="-90" width="110" height="50" as="geometry" />
        </mxCell>
        <mxCell id="qIUP8JVqwEukpnq0GiEh-17" value="" style="endArrow=none;html=1;rounded=0;" edge="1" parent="1" target="qIUP8JVqwEukpnq0GiEh-7">
          <mxGeometry width="50" height="50" relative="1" as="geometry">
            <mxPoint x="-210" y="30" as="sourcePoint" />
            <mxPoint x="70" y="-20" as="targetPoint" />
          </mxGeometry>
        </mxCell>
        <mxCell id="qIUP8JVqwEukpnq0GiEh-20" value="" style="endArrow=none;html=1;rounded=0;" edge="1" parent="1" target="qIUP8JVqwEukpnq0GiEh-11">
          <mxGeometry width="50" height="50" relative="1" as="geometry">
            <mxPoint x="-150" y="70" as="sourcePoint" />
            <mxPoint x="-46" y="34" as="targetPoint" />
          </mxGeometry>
        </mxCell>
        <mxCell id="qIUP8JVqwEukpnq0GiEh-21" value="" style="endArrow=none;html=1;rounded=0;" edge="1" parent="1" target="qIUP8JVqwEukpnq0GiEh-14">
          <mxGeometry width="50" height="50" relative="1" as="geometry">
            <mxPoint x="-140" y="80" as="sourcePoint" />
            <mxPoint x="-44" y="103" as="targetPoint" />
          </mxGeometry>
        </mxCell>
        <mxCell id="qIUP8JVqwEukpnq0GiEh-23" value="&lt;span style=&quot;color: rgb(230, 237, 243); font-family: -apple-system, BlinkMacSystemFont, &amp;quot;Segoe UI&amp;quot;, &amp;quot;Noto Sans&amp;quot;, Helvetica, Arial, sans-serif, &amp;quot;Apple Color Emoji&amp;quot;, &amp;quot;Segoe UI Emoji&amp;quot;; font-size: 14px; font-style: normal; font-variant-ligatures: normal; font-variant-caps: normal; font-weight: 400; letter-spacing: normal; orphans: 2; text-align: left; text-indent: 0px; text-transform: none; widows: 2; word-spacing: 0px; -webkit-text-stroke-width: 0px; white-space: normal; background-color: rgb(13, 17, 23); text-decoration-thickness: initial; text-decoration-style: initial; text-decoration-color: initial; display: inline !important; float: none;&quot;&gt;약물 복용 관리 기능&lt;/span&gt;" style="text;whiteSpace=wrap;html=1;" vertex="1" parent="1">
          <mxGeometry x="-163" y="-200" width="126" height="30" as="geometry" />
        </mxCell>
        <mxCell id="qIUP8JVqwEukpnq0GiEh-24" value="&lt;span style=&quot;color: rgb(230, 237, 243); font-family: -apple-system, BlinkMacSystemFont, &amp;quot;Segoe UI&amp;quot;, &amp;quot;Noto Sans&amp;quot;, Helvetica, Arial, sans-serif, &amp;quot;Apple Color Emoji&amp;quot;, &amp;quot;Segoe UI Emoji&amp;quot;; font-size: 14px; font-style: normal; font-variant-ligatures: normal; font-variant-caps: normal; font-weight: 400; letter-spacing: normal; orphans: 2; text-align: left; text-indent: 0px; text-transform: none; widows: 2; word-spacing: 0px; -webkit-text-stroke-width: 0px; white-space: normal; background-color: rgb(13, 17, 23); text-decoration-thickness: initial; text-decoration-style: initial; text-decoration-color: initial; display: inline !important; float: none;&quot;&gt;사용자 계정 관리&amp;nbsp; 기능&lt;/span&gt;" style="text;whiteSpace=wrap;html=1;" vertex="1" parent="1">
          <mxGeometry x="469" y="-120" width="151" height="30" as="geometry" />
        </mxCell>
        <mxCell id="qIUP8JVqwEukpnq0GiEh-25" value="약 복용하는 사람" style="shape=umlActor;verticalLabelPosition=bottom;verticalAlign=top;html=1;" vertex="1" parent="1">
          <mxGeometry x="400" y="35" width="30" height="60" as="geometry" />
        </mxCell>
        <mxCell id="qIUP8JVqwEukpnq0GiEh-26" value="회원가입(이메일/소셜)" style="ellipse;whiteSpace=wrap;html=1;" vertex="1" parent="1">
          <mxGeometry x="500" y="-70" width="130" height="50" as="geometry" />
        </mxCell>
        <mxCell id="qIUP8JVqwEukpnq0GiEh-27" value="" style="endArrow=none;html=1;rounded=0;" edge="1" parent="1" target="qIUP8JVqwEukpnq0GiEh-26">
          <mxGeometry width="50" height="50" relative="1" as="geometry">
            <mxPoint x="450" y="60" as="sourcePoint" />
            <mxPoint x="710" y="60" as="targetPoint" />
          </mxGeometry>
        </mxCell>
        <mxCell id="qIUP8JVqwEukpnq0GiEh-29" value="탈퇴" style="ellipse;whiteSpace=wrap;html=1;" vertex="1" parent="1">
          <mxGeometry x="540" width="110" height="50" as="geometry" />
        </mxCell>
        <mxCell id="qIUP8JVqwEukpnq0GiEh-30" value="" style="endArrow=none;html=1;rounded=0;" edge="1" parent="1" target="qIUP8JVqwEukpnq0GiEh-29">
          <mxGeometry width="50" height="50" relative="1" as="geometry">
            <mxPoint x="460" y="80" as="sourcePoint" />
            <mxPoint x="737" y="120" as="targetPoint" />
          </mxGeometry>
        </mxCell>
        <mxCell id="qIUP8JVqwEukpnq0GiEh-32" value="비밀번호 수정" style="ellipse;whiteSpace=wrap;html=1;" vertex="1" parent="1">
          <mxGeometry x="557" y="70" width="110" height="50" as="geometry" />
        </mxCell>
        <mxCell id="qIUP8JVqwEukpnq0GiEh-33" value="" style="endArrow=none;html=1;rounded=0;" edge="1" parent="1" target="qIUP8JVqwEukpnq0GiEh-32">
          <mxGeometry width="50" height="50" relative="1" as="geometry">
            <mxPoint x="470" y="100" as="sourcePoint" />
            <mxPoint x="754" y="190" as="targetPoint" />
          </mxGeometry>
        </mxCell>
        <mxCell id="qIUP8JVqwEukpnq0GiEh-34" value="&lt;span style=&quot;color: rgb(230, 237, 243); font-family: -apple-system, BlinkMacSystemFont, &amp;quot;Segoe UI&amp;quot;, &amp;quot;Noto Sans&amp;quot;, Helvetica, Arial, sans-serif, &amp;quot;Apple Color Emoji&amp;quot;, &amp;quot;Segoe UI Emoji&amp;quot;; font-size: 14px; font-style: normal; font-variant-ligatures: normal; font-variant-caps: normal; font-weight: 400; letter-spacing: normal; orphans: 2; text-align: left; text-indent: 0px; text-transform: none; widows: 2; word-spacing: 0px; -webkit-text-stroke-width: 0px; white-space: normal; background-color: rgb(13, 17, 23); text-decoration-thickness: initial; text-decoration-style: initial; text-decoration-color: initial; display: inline !important; float: none;&quot;&gt;건강상태 보기 기능&lt;/span&gt;" style="text;whiteSpace=wrap;html=1;" vertex="1" parent="1">
          <mxGeometry x="1109" y="-150" width="131" height="30" as="geometry" />
        </mxCell>
        <mxCell id="qIUP8JVqwEukpnq0GiEh-35" value="약 복용하는 사람" style="shape=umlActor;verticalLabelPosition=bottom;verticalAlign=top;html=1;" vertex="1" parent="1">
          <mxGeometry x="1020" y="20" width="30" height="60" as="geometry" />
        </mxCell>
        <mxCell id="qIUP8JVqwEukpnq0GiEh-36" value="증상 기록&lt;div&gt;(텍스트)&lt;/div&gt;" style="ellipse;whiteSpace=wrap;html=1;" vertex="1" parent="1">
          <mxGeometry x="1050" y="-90" width="95" height="50" as="geometry" />
        </mxCell>
        <mxCell id="qIUP8JVqwEukpnq0GiEh-37" value="" style="endArrow=none;html=1;rounded=0;" edge="1" parent="1" target="qIUP8JVqwEukpnq0GiEh-36">
          <mxGeometry width="50" height="50" relative="1" as="geometry">
            <mxPoint x="1090" y="30" as="sourcePoint" />
            <mxPoint x="1350" y="30" as="targetPoint" />
          </mxGeometry>
        </mxCell>
        <mxCell id="qIUP8JVqwEukpnq0GiEh-38" value="컨디션 기록&lt;div&gt;(5단계 슬라이드)&lt;/div&gt;" style="ellipse;whiteSpace=wrap;html=1;" vertex="1" parent="1">
          <mxGeometry x="1170" y="-60" width="110" height="50" as="geometry" />
        </mxCell>
        <mxCell id="qIUP8JVqwEukpnq0GiEh-39" value="" style="endArrow=none;html=1;rounded=0;" edge="1" parent="1" target="qIUP8JVqwEukpnq0GiEh-38">
          <mxGeometry width="50" height="50" relative="1" as="geometry">
            <mxPoint x="1100" y="50" as="sourcePoint" />
            <mxPoint x="1377" y="90" as="targetPoint" />
          </mxGeometry>
        </mxCell>
        <mxCell id="qIUP8JVqwEukpnq0GiEh-43" value="&lt;span style=&quot;color: rgb(230, 237, 243); font-family: -apple-system, BlinkMacSystemFont, &amp;quot;Segoe UI&amp;quot;, &amp;quot;Noto Sans&amp;quot;, Helvetica, Arial, sans-serif, &amp;quot;Apple Color Emoji&amp;quot;, &amp;quot;Segoe UI Emoji&amp;quot;; font-size: 14px; font-style: normal; font-variant-ligatures: normal; font-variant-caps: normal; font-weight: 400; letter-spacing: normal; orphans: 2; text-align: left; text-indent: 0px; text-transform: none; widows: 2; word-spacing: 0px; -webkit-text-stroke-width: 0px; white-space: normal; background-color: rgb(13, 17, 23); text-decoration-thickness: initial; text-decoration-style: initial; text-decoration-color: initial; display: inline !important; float: none;&quot;&gt;데이터 복구 백업(부가기능)&lt;/span&gt;&lt;div&gt;&lt;font face=&quot;-apple-system, BlinkMacSystemFont, Segoe UI, Noto Sans, Helvetica, Arial, sans-serif, Apple Color Emoji, Segoe UI Emoji&quot; color=&quot;#e6edf3&quot;&gt;&lt;span style=&quot;font-size: 14px; background-color: rgb(13, 17, 23);&quot;&gt;(필요한 기능인지 좀 더 생각해보기)&lt;/span&gt;&lt;/font&gt;&lt;/div&gt;" style="text;whiteSpace=wrap;html=1;" vertex="1" parent="1">
          <mxGeometry x="-300.5" y="510" width="231" height="50" as="geometry" />
        </mxCell>
        <mxCell id="qIUP8JVqwEukpnq0GiEh-44" value="약 복용하는 사람" style="shape=umlActor;verticalLabelPosition=bottom;verticalAlign=top;html=1;" vertex="1" parent="1">
          <mxGeometry x="-330.5" y="720" width="30" height="60" as="geometry" />
        </mxCell>
        <mxCell id="qIUP8JVqwEukpnq0GiEh-45" value="클라우드 백업 신청" style="ellipse;whiteSpace=wrap;html=1;" vertex="1" parent="1">
          <mxGeometry x="-240.5" y="580" width="130" height="50" as="geometry" />
        </mxCell>
        <mxCell id="qIUP8JVqwEukpnq0GiEh-46" value="" style="endArrow=none;html=1;rounded=0;" edge="1" parent="1" target="qIUP8JVqwEukpnq0GiEh-45">
          <mxGeometry width="50" height="50" relative="1" as="geometry">
            <mxPoint x="-290.5" y="710" as="sourcePoint" />
            <mxPoint x="-30.5" y="710" as="targetPoint" />
          </mxGeometry>
        </mxCell>
        <mxCell id="qIUP8JVqwEukpnq0GiEh-47" value="클라우드 복구 신청" style="ellipse;whiteSpace=wrap;html=1;" vertex="1" parent="1">
          <mxGeometry x="-200.5" y="650" width="150" height="50" as="geometry" />
        </mxCell>
        <mxCell id="qIUP8JVqwEukpnq0GiEh-48" value="" style="endArrow=none;html=1;rounded=0;" edge="1" parent="1" target="qIUP8JVqwEukpnq0GiEh-47">
          <mxGeometry width="50" height="50" relative="1" as="geometry">
            <mxPoint x="-280.5" y="740" as="sourcePoint" />
            <mxPoint x="-3.5" y="770" as="targetPoint" />
          </mxGeometry>
        </mxCell>
        <mxCell id="qIUP8JVqwEukpnq0GiEh-52" value="데이터 초기화 신청" style="ellipse;whiteSpace=wrap;html=1;" vertex="1" parent="1">
          <mxGeometry x="-190.5" y="730" width="150" height="50" as="geometry" />
        </mxCell>
        <mxCell id="qIUP8JVqwEukpnq0GiEh-53" value="" style="endArrow=none;html=1;rounded=0;" edge="1" parent="1" target="qIUP8JVqwEukpnq0GiEh-52">
          <mxGeometry width="50" height="50" relative="1" as="geometry">
            <mxPoint x="-280.5" y="760" as="sourcePoint" />
            <mxPoint x="-162.5" y="705" as="targetPoint" />
          </mxGeometry>
        </mxCell>
        <mxCell id="qIUP8JVqwEukpnq0GiEh-54" value="복용 기록&amp;nbsp;&lt;span style=&quot;background-color: initial;&quot;&gt;보기&lt;/span&gt;" style="ellipse;whiteSpace=wrap;html=1;" vertex="1" parent="1">
          <mxGeometry x="-20" y="120" width="110" height="60" as="geometry" />
        </mxCell>
        <mxCell id="qIUP8JVqwEukpnq0GiEh-55" value="복용 기록 작성" style="ellipse;whiteSpace=wrap;html=1;" vertex="1" parent="1">
          <mxGeometry x="-20" y="40" width="110" height="60" as="geometry" />
        </mxCell>
        <mxCell id="qIUP8JVqwEukpnq0GiEh-56" value="" style="endArrow=none;html=1;rounded=0;exitX=0.441;exitY=0.7;exitDx=0;exitDy=0;exitPerimeter=0;" edge="1" parent="1" source="qIUP8JVqwEukpnq0GiEh-66" target="qIUP8JVqwEukpnq0GiEh-54">
          <mxGeometry width="50" height="50" relative="1" as="geometry">
            <mxPoint x="-160" y="150" as="sourcePoint" />
            <mxPoint x="-18" y="144" as="targetPoint" />
          </mxGeometry>
        </mxCell>
        <mxCell id="qIUP8JVqwEukpnq0GiEh-57" value="" style="endArrow=none;html=1;rounded=0;exitX=0.508;exitY=0.64;exitDx=0;exitDy=0;exitPerimeter=0;" edge="1" parent="1" source="qIUP8JVqwEukpnq0GiEh-66" target="qIUP8JVqwEukpnq0GiEh-55">
          <mxGeometry width="50" height="50" relative="1" as="geometry">
            <mxPoint x="-120" y="120" as="sourcePoint" />
            <mxPoint x="-75" y="205" as="targetPoint" />
          </mxGeometry>
        </mxCell>
        <mxCell id="qIUP8JVqwEukpnq0GiEh-67" value="약물 이름으로 검색" style="ellipse;whiteSpace=wrap;html=1;" vertex="1" parent="1">
          <mxGeometry x="-380" y="-180" width="130" height="50" as="geometry" />
        </mxCell>
        <mxCell id="qIUP8JVqwEukpnq0GiEh-68" value="" style="html=1;verticalAlign=bottom;endArrow=block;curved=0;rounded=0;" edge="1" parent="1" source="qIUP8JVqwEukpnq0GiEh-67" target="qIUP8JVqwEukpnq0GiEh-7">
          <mxGeometry width="80" relative="1" as="geometry">
            <mxPoint x="-130" y="30" as="sourcePoint" />
            <mxPoint x="-50" y="30" as="targetPoint" />
          </mxGeometry>
        </mxCell>
        <mxCell id="qIUP8JVqwEukpnq0GiEh-73" value="계정찾기" style="ellipse;whiteSpace=wrap;html=1;" vertex="1" parent="1">
          <mxGeometry x="551.5" y="130" width="110" height="50" as="geometry" />
        </mxCell>
        <mxCell id="qIUP8JVqwEukpnq0GiEh-74" value="" style="endArrow=none;html=1;rounded=0;exitX=0.513;exitY=0.787;exitDx=0;exitDy=0;exitPerimeter=0;" edge="1" parent="1" target="qIUP8JVqwEukpnq0GiEh-73">
          <mxGeometry width="50" height="50" relative="1" as="geometry">
            <mxPoint x="457.3900000000003" y="118.22000000000003" as="sourcePoint" />
            <mxPoint x="588.4860787718603" y="145.5988747888382" as="targetPoint" />
          </mxGeometry>
        </mxCell>
        <mxCell id="qIUP8JVqwEukpnq0GiEh-75" value="비밀번호 찾기" style="ellipse;whiteSpace=wrap;html=1;" vertex="1" parent="1">
          <mxGeometry x="510" y="190" width="110" height="50" as="geometry" />
        </mxCell>
        <mxCell id="qIUP8JVqwEukpnq0GiEh-76" value="" style="endArrow=none;html=1;rounded=0;exitX=0.513;exitY=0.787;exitDx=0;exitDy=0;exitPerimeter=0;" edge="1" parent="1" target="qIUP8JVqwEukpnq0GiEh-75">
          <mxGeometry width="50" height="50" relative="1" as="geometry">
            <mxPoint x="435.3900000000003" y="128.22000000000003" as="sourcePoint" />
            <mxPoint x="566.4860787718603" y="155.5988747888382" as="targetPoint" />
          </mxGeometry>
        </mxCell>
        <mxCell id="qIUP8JVqwEukpnq0GiEh-78" value="월/별로 증상 보기" style="ellipse;whiteSpace=wrap;html=1;" vertex="1" parent="1">
          <mxGeometry x="1200" y="20" width="120" height="50" as="geometry" />
        </mxCell>
        <mxCell id="qIUP8JVqwEukpnq0GiEh-79" value="" style="endArrow=none;html=1;rounded=0;exitX=0.3;exitY=0.713;exitDx=0;exitDy=0;exitPerimeter=0;" edge="1" parent="1" target="qIUP8JVqwEukpnq0GiEh-78">
          <mxGeometry width="50" height="50" relative="1" as="geometry">
            <mxPoint x="1071" y="62.77999999999997" as="sourcePoint" />
            <mxPoint x="1254.8369373039022" y="87.40357970815967" as="targetPoint" />
          </mxGeometry>
        </mxCell>
        <mxCell id="qIUP8JVqwEukpnq0GiEh-82" value="" style="rounded=0;whiteSpace=wrap;html=1;" vertex="1" parent="1">
          <mxGeometry x="290" y="360" width="420" height="410" as="geometry" />
        </mxCell>
        <mxCell id="qIUP8JVqwEukpnq0GiEh-83" value="&lt;span style=&quot;color: rgb(230, 237, 243); font-family: -apple-system, BlinkMacSystemFont, &amp;quot;Segoe UI&amp;quot;, &amp;quot;Noto Sans&amp;quot;, Helvetica, Arial, sans-serif, &amp;quot;Apple Color Emoji&amp;quot;, &amp;quot;Segoe UI Emoji&amp;quot;; font-size: 14px; font-style: normal; font-variant-ligatures: normal; font-variant-caps: normal; font-weight: 400; letter-spacing: normal; orphans: 2; text-align: left; text-indent: 0px; text-transform: none; widows: 2; word-spacing: 0px; -webkit-text-stroke-width: 0px; white-space: normal; background-color: rgb(13, 17, 23); text-decoration-thickness: initial; text-decoration-style: initial; text-decoration-color: initial; display: inline !important; float: none;&quot;&gt;데이터 시각화로 보기&lt;/span&gt;" style="text;whiteSpace=wrap;html=1;" vertex="1" parent="1">
          <mxGeometry x="430" y="429" width="151" height="30" as="geometry" />
        </mxCell>
        <mxCell id="qIUP8JVqwEukpnq0GiEh-84" value="약 복용하는 사람" style="shape=umlActor;verticalLabelPosition=bottom;verticalAlign=top;html=1;" vertex="1" parent="1">
          <mxGeometry x="420" y="599" width="30" height="60" as="geometry" />
        </mxCell>
        <mxCell id="qIUP8JVqwEukpnq0GiEh-91" value="컨디션 그래프로 보기" style="ellipse;whiteSpace=wrap;html=1;" vertex="1" parent="1">
          <mxGeometry x="500" y="490" width="120" height="50" as="geometry" />
        </mxCell>
        <mxCell id="qIUP8JVqwEukpnq0GiEh-92" value="" style="endArrow=none;html=1;rounded=0;" edge="1" parent="1" source="qIUP8JVqwEukpnq0GiEh-91">
          <mxGeometry width="50" height="50" relative="1" as="geometry">
            <mxPoint x="1113.6" y="644.2" as="sourcePoint" />
            <mxPoint x="470" y="580" as="targetPoint" />
          </mxGeometry>
        </mxCell>
      </root>
    </mxGraphModel>
  </diagram>
</mxfile>
